<?xml version="1.0" encoding="UTF-8"?>
<!DOCTYPE svg PUBLIC "-//W3C//DTD SVG 1.1//EN" "http://www.w3.org/Graphics/SVG/1.1/DTD/svg11.dtd">
<!-- Creator: CorelDRAW 2017 -->
<svg xmlns="http://www.w3.org/2000/svg" xml:space="preserve" width="50.7998mm" height="42.7566mm" version="1.1" style="shape-rendering:geometricPrecision; text-rendering:geometricPrecision; image-rendering:optimizeQuality; fill-rule:evenodd; clip-rule:evenodd"
viewBox="0 0 5079.98 4275.66"
 xmlns:xlink="http://www.w3.org/1999/xlink">
 <defs>
  <style type="text/css">
   <![CDATA[
    .str0 {stroke:#E6298A;stroke-width:20;stroke-miterlimit:22.9256}
    .fil6 {fill:#FEFEFE}
    .fil3 {fill:#FEFEFE}
    .fil0 {fill:#E6298A}
    .fil4 {fill:#E42986}
    .fil8 {fill:#9A9999}
    .fil5 {fill:#353233}
    .fil7 {fill:#292929}
    .fil2 {fill:#242021}
    .fil1 {fill:#DD1486}
    .fil9 {fill:#373435;fill-rule:nonzero}
   ]]>
  </style>
 </defs>
 <g id="Capa_x0020_1">
  <metadata id="CorelCorpID_0Corel-Layer"/>
  <g id="_2685586959744">
   <path class="fil0" d="M1608.42 252.3c870.85,0 1576.82,705.97 1576.82,1576.82 0,870.84 -705.97,1576.81 -1576.82,1576.81 -870.84,0 -1576.81,-705.97 -1576.81,-1576.81 0,-870.85 705.97,-1576.82 1576.81,-1576.82z"/>
   <path class="fil0" d="M3471.55 17.41c870.85,0 1576.82,705.97 1576.82,1576.82 0,870.84 -705.97,1576.81 -1576.82,1576.81 -870.84,0 -1576.81,-705.97 -1576.81,-1576.81 0,-870.85 705.97,-1576.82 1576.81,-1576.82z"/>
   <path class="fil1" d="M3255.45 3850.51l-8.46 -28.87c-32.38,18.25 -28.3,22.02 8.46,28.87z"/>
   <path class="fil1" d="M3241.66 2433.74c-25.59,17.7 -13.35,18.65 -39.18,0 -1.51,-35.38 31.96,-49.96 39.18,0zm6.96 -57.31c-108.52,-9.56 -85.94,79.75 -48.3,94.8 57.24,22.88 99.05,-32.14 48.3,-94.8z"/>
   <path class="fil1" d="M2919.03 2394.5l60.73 -6.76c3.23,-12.73 0.89,-32.68 5.36,-59.04 -42.31,-2.26 -23.57,2.96 -69.15,-4.22l3.06 70.02z"/>
   <path class="fil1" d="M3170.12 3615.12c6.62,41.11 8.83,29.37 -29.64,34.89l-0.66 -37.05 30.3 2.16zm-43.04 -30.62c-49.94,63.34 -5.21,119.57 53.43,92.04 41.59,-19.52 42.49,-110.23 -53.43,-92.04z"/>
   <path class="fil1" d="M3255.45 3850.51c-36.76,-6.85 -40.84,-10.62 -8.46,-28.87l8.46 28.87zm-40.71 25.62c61.35,11.04 76.7,-5.96 64.99,-65.44 -63.75,-42.16 -107.96,1.37 -64.99,65.44z"/>
   <path class="fil1" d="M2964.98 3655.7c37.41,0.46 24.9,-3.34 65.01,2.98l0.92 -70.3c-45,6.56 -24.13,2.03 -67.53,3.44 4.43,37.49 3.11,27.74 1.6,63.88z"/>
   <path class="fil1" d="M3288.42 3654.69c19.02,29.05 35.86,30.22 54.77,0 -17.54,-11.19 19.45,-10.13 -22.87,-11.07 -49.82,-1.12 -18.84,3.02 -31.9,11.07z"/>
   <path class="fil1" d="M3045.58 2230.61c-5.08,-35.48 12.25,-25.31 -24.9,-24.75 -0.28,35.42 -11.17,20.52 24.9,24.75z"/>
   <path class="fil1" d="M3140.48 3650.01c38.47,-5.52 36.26,6.22 29.64,-34.89l-30.3 -2.16 0.66 37.05z"/>
   <g>
    <path class="fil2" d="M3061.99 1840.43c-30.15,305.61 -227.42,361.46 -382.76,447.92 124.57,126.03 704.34,66.43 809.84,-358.07 212.6,3.32 651.8,33.86 841.18,-24.95 293.76,-91.24 203.89,-748.65 64.45,-978.59 -76.14,-125.59 -65.81,-175.18 -226.96,-215.15 -371.74,-92.23 -1251.89,-91.04 -1648.97,-61.08 -335.1,25.28 -432.66,69.46 -440.94,431.19 -3.95,172.37 23.36,611.49 191.89,682.11 182.75,76.59 573.86,77.78 792.27,76.62zm36.06 -28.07c-7.81,111.47 -31.96,193.81 -86.7,274.87 -66.88,99.04 -121.57,113.72 -192.99,182.19 399.55,2.53 500.4,-173.26 622.19,-435.24 601.52,-81.61 1121.23,162.7 985.83,-632.11 -17.63,-103.51 -50.41,-219.53 -92.07,-312.97 -59.22,-132.83 -99.78,-134.86 -259.29,-163.28 -238.13,-42.41 -531.59,-54.18 -781.21,-59.62 -268.48,-5.84 -549.85,-4.23 -815.28,19.57 -136.52,12.24 -251.31,19.85 -304.98,107.25 -100.71,164.03 -65.03,524.29 -19.43,710.09 32.53,132.54 48.85,208.86 177.72,248.15 241.94,73.76 507.6,42.04 766.21,61.1z"/>
    <path class="fil3" d="M3098.05 1812.36c-7.81,111.47 -31.96,193.82 -86.7,274.88 -66.88,99.03 -121.57,113.71 -192.99,182.18 399.55,2.53 500.4,-173.27 622.19,-435.24 601.52,-81.61 1121.23,162.7 985.83,-632.12 -17.63,-103.5 -50.41,-219.52 -92.07,-312.96 -59.22,-132.83 -99.78,-134.86 -259.29,-163.28 -238.13,-42.41 -531.58,-54.18 -781.21,-59.62 -268.48,-5.84 -549.85,-4.23 -815.28,19.57 -136.52,12.24 -251.31,19.85 -304.98,107.25 -100.71,164.03 -65.03,524.29 -19.43,710.09 32.53,132.54 48.85,208.86 177.72,248.14 241.94,73.77 507.6,42.06 766.21,61.11z"/>
    <path class="fil3" d="M3062 1840.43c-30.16,305.6 -227.43,361.46 -382.76,447.92 124.56,126.03 704.33,66.43 809.83,-358.07 212.6,3.32 651.8,33.86 841.18,-24.95 293.76,-91.24 203.89,-748.65 64.46,-978.6 -76.15,-125.58 -65.82,-175.17 -226.97,-215.14 -371.74,-92.23 -1251.89,-91.04 -1648.97,-61.08 -335.1,25.28 -432.66,69.46 -440.94,431.19 -3.95,172.37 23.36,611.49 191.89,682.11 182.75,76.59 573.86,77.78 792.28,76.62z"/>
    <path class="fil2" d="M3061.99 1840.43c-30.15,305.61 -227.42,361.46 -382.76,447.92 124.57,126.03 704.34,66.43 809.84,-358.07 212.6,3.32 651.8,33.86 841.18,-24.95 293.76,-91.24 203.89,-748.65 64.45,-978.59 -76.14,-125.59 -65.81,-175.18 -226.96,-215.15 -371.74,-92.23 -1251.89,-91.04 -1648.97,-61.08 -335.1,25.28 -432.66,69.46 -440.94,431.19 -3.95,172.37 23.36,611.49 191.89,682.11 182.75,76.59 573.86,77.78 792.27,76.62zm36.06 -28.07c-7.81,111.47 -31.96,193.81 -86.7,274.87 -66.88,99.04 -121.57,113.72 -192.99,182.19 399.55,2.53 500.4,-173.26 622.19,-435.24 601.52,-81.61 1121.23,162.7 985.83,-632.11 -17.63,-103.51 -50.41,-219.53 -92.07,-312.97 -59.22,-132.83 -99.78,-134.86 -259.29,-163.28 -238.13,-42.41 -531.59,-54.18 -781.21,-59.62 -268.48,-5.84 -549.85,-4.23 -815.28,19.57 -136.52,12.24 -251.31,19.85 -304.98,107.25 -100.71,164.03 -65.03,524.29 -19.43,710.09 32.53,132.54 48.85,208.86 177.72,248.15 241.94,73.76 507.6,42.04 766.21,61.1z"/>
   </g>
   <path class="fil4 str0" d="M1410.98 3946.74c582.09,0 1053.96,69.74 1053.96,155.76 0,86.01 -471.87,155.75 -1053.96,155.75 -582.08,0 -1053.96,-69.74 -1053.96,-155.75 0,-86.02 471.88,-155.76 1053.96,-155.76z"/>
   <g>
    <g>
     <path class="fil5" d="M2272.76 2060.86c11.34,16.31 19.99,26.92 29.98,38.64 10.28,-16.12 80.04,-49.21 86.95,-51.06 17.95,26.79 28.61,47.99 49.7,62.12 -0.89,-39.63 -21.42,-57.09 -37.27,-80.75 33.36,-22.34 82.79,-105.12 86.96,-155.29 47.1,34.51 62.04,182.28 -19.49,278.65 -1.18,1.38 -4.6,5.28 -5.83,6.6l-6.2 6.21c-0.91,0.91 -2.26,2.16 -3.19,3.04 -16.33,15.57 -16.14,20.32 -39.83,22.28 -6.84,-29.37 -21.57,-53.66 -43.48,-68.32 1.06,47.38 23.66,33.65 24.85,86.96 -15.97,10.69 -14.32,10.52 -34.06,18.63l9.21 14.2c99.04,-36.58 166.78,-125.52 173.92,-226.42l0 -35.38c-2.37,-33.85 -11.63,-68.47 -28.83,-102.46 -6.09,-12.03 -8.65,-18.4 -15.33,-28.15 -8.28,-12.09 -7.6,-14.9 -24.16,-19.32 -8.85,18.44 -9.94,66.24 -19.28,92.53 -19.9,56.03 -55.04,88.3 -101.28,122.33 -44.61,32.85 -49.66,26.92 -83.34,14.96z"/>
     <path class="fil5" d="M1725.07 1912.91c22.31,-6.82 28.52,-6.31 44.83,-19.76l-26.2 0c0,-74.97 13.81,-114.07 51.14,-153.84 30.83,-32.85 73.52,-70.72 122.79,-82.19 -8.33,31.18 -42,55.03 -55.28,93.79 -6.75,19.67 -5.4,45.6 -18.67,55.88l-56.49 30.46c34.48,0 36.83,-6.21 68.32,-6.21 6.66,28.58 12.48,19.14 18.63,45.02l18.64 1.99c-6.08,-29.11 -26.93,-49.78 -22.68,-88.09 6.61,-59.63 50.24,-96.88 90.45,-140.7 54.09,-58.95 -91.13,-19.57 -181.14,80.83 -40.49,45.15 -54.34,97.98 -54.34,182.82z"/>
     <path class="fil5" d="M2054.32 1899.36c21.19,19.21 73.14,37.32 99.34,52.02 37.89,-87.49 30.83,-79.53 24.85,-151.4 -35.52,0 -59.85,14.12 -77.99,33.83 -19.36,21.04 -33.34,41.07 -46.2,65.55z"/>
     <path class="fil5" d="M1429.7 2089.64c55.64,2.06 68.98,-97.35 1.51,-116.63 -10.75,50.36 -8.23,64.61 -1.51,116.63z"/>
    </g>
    <g>
     <path class="fil6" d="M1352.38 2060.86c0,-55.88 68.33,-43.33 68.33,-12.42 0,39.43 2.16,37.27 -37.27,37.27 -12.89,0 -31.06,-18.17 -31.06,-24.85zm77.32 28.78c-6.72,-52.02 -9.24,-66.27 1.51,-116.63 67.47,19.28 54.13,118.69 -1.51,116.63zm11.64 -191.79c-199.48,29.83 -145.11,285.76 22.93,269.92 178.86,-16.85 144.74,-294.98 -22.93,-269.92z"/>
     <path class="fil6" d="M1997.26 2445.98c-36.42,-22.04 -207.32,-52.85 -257.97,-48.25 3.33,96.33 24.54,223.82 104.85,241.11 89.75,19.31 150.83,-111.41 153.12,-192.86z"/>
     <path class="fil6" d="M1520.51 2748.05c21,-10.72 45.39,-30.51 65.39,-43.81 37.49,-24.92 29.22,-22.64 44.29,-67.53 24.64,-73.31 77.15,-85.79 84.59,-147.74 -36.14,12.62 -49.25,49.92 -99.06,58.42 -58.22,9.93 -67.16,-36.44 -95.63,-55.87 -60.87,42.45 -66.72,195.07 0.42,256.53z"/>
     <path class="fil6" d="M1906.51 2907.36c3.19,-73.35 5.32,-186.13 -87.66,-170.39 -54.27,9.18 -110.13,79.65 -120.06,139.13 75.59,14.92 120.94,32.03 207.72,31.26z"/>
     <path class="fil6" d="M2200.7 2545.36c-23.61,-45.47 -103.65,-75.17 -169.01,-90.85 -10.69,44.02 -19.54,120.72 32.75,136.57 74.61,22.61 111.24,-4.56 136.26,-45.72z"/>
     <path class="fil6" d="M1700.6 2410.92c-13.87,-15.89 9.83,-7.7 -31.47,-7.72 -63.94,-2.8 -157.03,51.03 -92.89,104.91 51.43,43.21 118.02,-47.32 124.36,-97.19z"/>
     <path class="fil6" d="M2096.14 2886.18c-4.71,-44.46 -7.66,-60.49 -31.74,-89.93 -72.76,-1.83 -107.19,43.57 -116.83,111.3l148.57 -21.37z"/>
     <path class="fil6" d="M2153.23 2625.07c9.35,56.79 21.04,81.68 23.01,152.58 19.66,12.73 53.62,25.68 77.32,28.92l7.92 -62c-87.79,-30.45 -37.92,-75.17 -78.45,-135.3l-29.8 15.8z"/>
     <path class="fil6" d="M1551.88 2781.4c14.25,19.46 70.11,69.81 107.59,65.8 7.26,-70.22 3.66,-70.53 -21.15,-121.41 -49.14,1.93 -74.65,16.58 -86.44,55.61z"/>
     <path class="fil6" d="M2290.13 2709.49c1.22,-63.79 -11.4,-120.01 -61.08,-136.08 -4.86,68.54 -22.58,133.05 61.08,136.08z"/>
     <path class="fil6" d="M2146.68 2863.59c35.37,-5.71 46.65,-8.21 59.96,-36.39 -10.88,-13.3 1.11,-2.59 -15.71,-13.99 -26.8,7.99 -34.2,22.45 -44.25,50.38z"/>
    </g>
    <path class="fil7" d="M1271.64 3365.27l24.84 -130.44 0 161.5c-10.6,-7.09 -24.84,-13.52 -24.84,-31.06zm675.93 -457.72c9.64,-67.73 44.07,-113.13 116.83,-111.3 24.08,29.44 27.03,45.47 31.74,89.93l-148.57 21.37zm-41.06 -0.19c-86.78,0.77 -132.13,-16.34 -207.72,-31.26 9.93,-59.48 65.79,-129.95 120.06,-139.13 92.98,-15.74 90.85,97.04 87.66,170.39zm240.17 -43.77c10.05,-27.93 17.45,-42.39 44.25,-50.38 16.82,11.4 4.83,0.69 15.71,13.99 -13.31,28.18 -24.59,30.68 -59.96,36.39zm-594.8 -82.19c11.79,-39.03 37.3,-53.68 86.44,-55.61 24.81,50.88 28.41,51.19 21.15,121.41 -37.48,4.01 -93.34,-46.34 -107.59,-65.8zm738.25 -71.91c-83.66,-3.03 -65.94,-67.54 -61.08,-136.08 49.68,16.07 62.3,72.29 61.08,136.08zm-28.65 35.08l-7.92 62c-23.7,-3.24 -57.66,-16.19 -77.32,-28.92 -1.97,-70.9 -13.66,-95.79 -23.01,-152.58l29.8 -15.8c40.53,60.13 -9.34,104.85 78.45,135.3zm-60.78 -199.21c-25.02,41.16 -61.65,68.33 -136.26,45.72 -52.29,-15.85 -43.44,-92.55 -32.75,-136.57 65.36,15.68 145.4,45.38 169.01,90.85zm-680.19 202.69c-67.14,-61.46 -61.29,-214.08 -0.42,-256.53 28.47,19.43 37.41,65.8 95.63,55.87 49.81,-8.5 62.92,-45.8 99.06,-58.42 -7.44,61.95 -59.95,74.43 -84.59,147.74 -15.07,44.89 -6.8,42.61 -44.29,67.53 -20,13.3 -44.39,33.09 -65.39,43.81zm476.75 -302.07c-2.29,81.45 -63.37,212.17 -153.12,192.86 -80.31,-17.29 -101.52,-144.78 -104.85,-241.11 50.65,-4.6 221.55,26.21 257.97,48.25zm-328.13 -42.78c16.81,-10.2 15.24,-7.95 38.48,-7.33l-7.01 15.05c-6.34,49.87 -72.93,140.4 -124.36,97.19 -64.14,-53.88 28.95,-107.71 92.89,-104.91zm-227.79 -505.35c167.67,-25.06 201.79,253.07 22.93,269.92 -168.04,15.84 -222.41,-240.09 -22.93,-269.92zm929.72 344.92l-9.21 -14.2c-5.65,-27.98 -36.2,-100.14 -56.39,-125.99 -0.49,-0.63 -1.74,-2.13 -2.72,-3.08 -9.99,-11.72 -18.64,-22.33 -29.98,-38.64 -3.75,-27.96 -98.99,-97.46 -119.1,-109.48 -26.2,-14.7 -78.15,-32.81 -99.34,-52.02 -43.79,-10.17 -102.02,-34.46 -161.54,-21.31l-18.64 -1.99 -104.24 17.09c-16.31,13.45 -22.52,12.94 -44.83,19.76 -145.36,54.66 -123.19,-54.37 -256.11,-74.3 -109.97,-16.48 -198.98,77.09 -209.14,160.76 -14.48,119.22 65.76,193.25 73.75,297.71 4.94,64.63 -4.5,120.63 -5.91,180.07l-40.94 511.88c-17.55,77.83 -60.6,325.58 -103.34,362.53 -19.44,16.8 -43.51,13.98 -67.03,26.14 -57.19,29.56 -87.94,153.83 -1.92,169.62 31.97,5.87 42.1,7.96 72.87,20.31 96.46,38.73 63.27,-5.96 115.39,-40.86l14.97 208.64c9.94,70.64 30.8,185.73 34.47,251.26 1.81,32.17 29.14,108.43 58.85,115.83 37.23,9.26 45.68,-26 57.37,-49.8 36.24,-73.77 57.18,-181.61 76.65,-264.98 14.36,-61.41 23.76,-133.53 35.61,-194.22 12.56,-64.33 24.88,-132.77 32.14,-197.69 6.86,-61.37 14.74,-143.61 28.73,-201.09 29.52,-121.32 188.52,-68.06 244.97,-65.37 89.2,4.25 232.83,7.94 286.01,-62.07 33.1,-43.58 66.66,-83.12 101.03,-128.79 124.12,-164.94 182.56,-303.87 145.59,-515.68 -11.4,-65.24 -31.81,-119.98 -48.02,-180.04z"/>
    <path class="fil8" d="M1700.6 2410.92l7.01 -15.05c-23.24,-0.62 -21.67,-2.87 -38.48,7.33 41.3,0.02 17.6,-8.17 31.47,7.72z"/>
   </g>
   <path class="fil9" d="M2585.76 1185.79c-9.56,-6.27 -14.98,-22.42 -16.26,-48.68 0.21,-18.7 0.43,-37.41 0.64,-56.11 -0.21,-20.73 -3.19,-37.73 -9.04,-51.13 -3.72,-7.86 -10.2,-11.79 -19.55,-11.79 -6.49,0 -14.14,1.8 -23.07,5.31 -10.2,8.29 -16.47,17.22 -19.02,26.78 -0.85,2.77 -1.81,13.82 -3.08,33.16 -0.85,13.5 -6.8,23.28 -17.75,29.34 -7.02,3.72 -18.81,6.48 -35.18,8.4 -19.98,-1.92 -31.67,-6.38 -35.18,-13.4 -2.13,-3.93 -3.08,-8.29 -3.08,-13.07 0,-5.63 3.72,-19.56 11.16,-41.77 1.28,-3.93 1.91,-7.76 1.91,-11.48 0,-6.26 -1.8,-12.11 -5.31,-17.75 -28.7,0 -49,22.22 -61.01,66.64l-13.39 48.89c-4.14,15.31 -11.37,24.55 -21.57,27.74 -9.25,0 -21.47,0.32 -36.35,0.85 -15.2,0.85 -24.66,-2.02 -28.38,-8.71 0,-24.66 2.34,-55.06 7.12,-90.98 4.04,-30.08 7.97,-60.26 11.9,-90.34 -0.42,-39.96 4.47,-68.34 14.56,-85.45 8.4,-1.17 15.95,-3.51 22.75,-6.8 1.91,-0.85 4.25,-1.28 7.23,-1.28 6.59,0 15.62,2.66 27.1,7.87 2.23,2.02 3.51,6.16 3.72,12.33 0.21,6.16 1.81,10.73 4.99,13.71 23.17,-9.14 43.9,-15.41 61.96,-18.92 2.03,-0.21 4.15,-0.32 6.17,-0.32 16.05,0 33.05,11.48 51.12,34.44l7.76 1.59c25.93,-23.59 49.1,-35.39 69.4,-35.39 10.2,0 19.66,2.87 28.38,8.71 27.21,18.28 47.4,47.94 60.69,89.07 11.05,33.9 16.15,70.25 15.3,109.04 -1.06,40.18 -9.03,65.15 -24.02,75.14 -18.07,2.02 -32.31,3.51 -42.62,4.36zm199.28 1.28c-47.94,-8.51 -74.08,-24.02 -78.44,-46.45 -0.85,-4.36 -1.27,-8.82 -1.27,-13.39 0,-18.28 7.01,-37.31 21.15,-57.29 15.2,-21.57 36.24,-43.68 63.34,-66.31 27.1,-22.65 52.82,-39.54 77.05,-50.81 0,-13.07 -7.44,-19.77 -22.42,-20.19 -26.79,-0.85 -60.37,6.91 -100.86,23.06 -15.73,6.27 -24.13,9.36 -25.19,9.36 -12.22,-12.44 -18.39,-24.98 -18.39,-37.74 0,-3.93 0.64,-7.86 1.92,-11.79 4.99,-16.69 15.51,-29.02 31.67,-37.1 42.4,-9.77 76.84,-14.66 103.41,-14.66 10.63,0 19.98,0.74 28.06,2.23 28.37,5.31 51.44,19.56 69.08,42.62 12.86,17.22 24.66,42.41 35.18,75.57 10.63,33.05 27.42,70.36 50.48,111.59 17.43,11.48 26.15,22.32 26.15,32.42 0,5.63 -2.87,11.16 -8.72,16.58 -15.83,14.45 -34.86,21.89 -57.28,22.1 -9.78,-6.06 -23.07,-16.9 -39.86,-32.73 -17.85,0 -42.19,8.82 -72.91,26.46 -30.71,17.65 -58.13,26.47 -82.15,26.47zm21.79 -70.04c15.73,0 36.87,-7.34 63.23,-22.11 18.81,-10.42 28.27,-22.43 28.27,-36.14 0,-5.42 -1.38,-11.05 -4.35,-17.11 -68.66,5.43 -103.1,28.8 -103.1,70.36 3.61,1.28 8.83,2.87 15.95,5zm488.58 73.86c-8.51,-6.37 -12.76,-15.62 -12.76,-27.63 0,-4.36 0.64,-9.03 1.91,-14.03 4.04,-18.92 7.76,-38.26 11.16,-58.14 1.28,-7.44 1.91,-14.77 1.91,-21.78 0,-11.38 -1.59,-22.01 -4.67,-31.68 -5.42,-16.05 -23.07,-25.4 -53.03,-28.37 -25.83,8.5 -44.22,20.51 -55.27,35.81 -8.93,12.65 -14.35,29.97 -16.16,51.98 -0.63,22.42 -1.38,44.74 -2.23,66.95 -5.84,5.64 -18.7,10.1 -38.69,13.39 -10.94,1.92 -19.55,2.87 -25.82,2.87 -5.21,0 -8.72,-0.74 -10.63,-2.12 -4.15,-6.8 -6.91,-23.49 -8.4,-50.06 -0.85,-16.05 -1.27,-32.74 -1.27,-50.17 0,-11.16 0.21,-22.63 0.64,-34.53 2.23,-75.89 7.75,-118.4 16.47,-127.54 10.63,-1.07 25.72,-3.3 45.49,-6.81 3.08,-0.42 6.06,-0.63 8.71,-0.63 14.56,0 23.81,7.86 27.74,23.7 7.02,0 19.35,-3.4 36.99,-10.21 12.64,-4.99 25.4,-9.88 38.05,-14.88 8.5,-1.16 16.47,-1.8 23.91,-1.8 21.47,0 38.58,5.52 51.44,16.47 28.17,24.87 42.3,67.28 42.3,127.11 0,7.34 -0.11,14.78 -0.32,22.43 -2.12,32.31 -5.74,63.02 -10.95,92.04 -5.84,4.89 -16.47,10.63 -31.99,17.11 -15.51,6.38 -26.99,9.89 -34.53,10.52zm246.04 -1.27c-71.64,-11.59 -109.58,-38.58 -113.94,-80.88 -0.64,-5.64 -0.96,-11.27 -0.96,-16.8 0,-35.92 12.44,-70.14 37.42,-102.77 28.59,-37.3 65.68,-63.56 111.17,-78.65 12,-3.93 23.38,-5.95 34.22,-5.95 30.08,0 55.58,15.52 76.63,46.66 8.5,28.48 12.75,54.73 12.75,79.07 0,31.57 -7.12,59.62 -21.25,84.28 -25.09,43.79 -70.47,68.77 -136.04,75.04zm1.38 -70.47c32.73,0 55.16,-9.88 67.38,-29.86 9.78,-15.52 14.67,-40.92 14.67,-76 -8.93,-8.71 -19.14,-13.07 -30.5,-13.07 -5.22,0 -10.74,0.85 -16.58,2.45 -17.86,5.63 -33.06,15.09 -45.49,28.37 -13.61,14.35 -20.73,30.29 -21.58,47.94 -1.06,17.11 9.67,30.5 32.1,40.17zm243.38 78.12c-34.43,-17.01 -50.38,-30.93 -47.93,-41.77 2.23,-9.56 13.39,-21.15 33.27,-34.86 14.66,-9.14 29.44,-18.28 44.1,-27.42 13.93,-9.14 20.83,-20.73 20.83,-34.65 0,-3.51 -0.53,-7.23 -1.59,-11.16 -12.12,-28.48 -18.17,-52.07 -18.17,-70.78 0,-19.24 6.59,-33.48 19.66,-42.62 25.72,-17.86 65.57,-34.75 119.56,-50.48 22.22,0 36.99,7.22 44.54,21.78 5.42,10.42 7.54,27.85 6.48,52.4 -17.22,2.66 -39.64,8.39 -67.28,17.11 -23.16,7.23 -34.86,19.56 -34.86,36.77 0,3.51 0.54,7.23 1.6,11.16 6.9,16.26 10.41,31.89 10.41,47.09 0,23.91 -8.71,46.55 -26.14,67.91 -28.59,34.86 -63.45,54.74 -104.48,59.52z"/>
   <path class="fil9" d="M2317.67 1660.17c-39.09,-6.93 -60.41,-19.59 -63.97,-37.88 -0.69,-3.55 -1.04,-7.19 -1.04,-10.92 0,-14.91 5.72,-30.42 17.25,-46.72 12.4,-17.59 29.56,-35.62 51.66,-54.09 22.1,-18.46 43.08,-32.24 62.84,-41.43 0,-10.66 -6.06,-16.12 -18.29,-16.47 -21.84,-0.69 -49.23,5.64 -82.26,18.81 -12.82,5.12 -19.67,7.63 -20.54,7.63 -9.97,-10.14 -14.99,-20.37 -14.99,-30.77 0,-3.21 0.52,-6.41 1.56,-9.62 4.07,-13.61 12.65,-23.66 25.83,-30.25 34.58,-7.97 62.67,-11.96 84.34,-11.96 8.66,0 16.29,0.61 22.88,1.82 23.14,4.33 41.95,15.95 56.34,34.75 10.49,14.05 20.11,34.59 28.69,61.63 8.67,26.96 22.36,57.38 41.17,91.01 14.22,9.37 21.32,18.21 21.32,26.44 0,4.6 -2.33,9.1 -7.1,13.52 -12.92,11.79 -28.43,17.86 -46.72,18.03 -7.98,-4.94 -18.81,-13.78 -32.5,-26.7 -14.57,0 -34.42,7.2 -59.47,21.59 -25.05,14.39 -47.41,21.58 -67,21.58zm17.77 -57.12c12.83,0 30.08,-5.98 51.57,-18.03 15.34,-8.49 23.06,-18.29 23.06,-29.47 0,-4.42 -1.13,-9.01 -3.56,-13.95 -55.99,4.42 -84.07,23.49 -84.07,57.38 2.94,1.04 7.19,2.34 13,4.07zm392.48 62.32c-8.15,-2.51 -13.96,-52.09 -17.51,-148.65l-4.08 -110.26c-1.3,-35.53 -3.21,-59.89 -5.72,-73.15 2.51,-10.84 17.42,-17.42 44.64,-19.76 7.37,-0.52 14.13,-0.78 20.2,-0.78 15.77,0 26.52,2.08 32.5,6.32 1.3,2.26 2,8.5 2,18.81 0,9.02 -0.52,20.98 -1.57,36.06 -4.07,59.98 -10.57,129.59 -19.5,208.81 -3.55,31.55 -5.37,48.28 -5.37,50.36 -2.86,13.87 -7.71,22.53 -14.65,25.91 -0.69,0.35 -11.01,2.43 -30.94,6.33zm164.59 -5.2c-39.09,-6.93 -60.41,-19.59 -63.96,-37.88 -0.69,-3.55 -1.04,-7.19 -1.04,-10.92 0,-14.91 5.72,-30.42 17.24,-46.72 12.4,-17.59 29.56,-35.62 51.67,-54.09 22.1,-18.46 43.07,-32.24 62.84,-41.43 0,-10.66 -6.07,-16.12 -18.29,-16.47 -21.85,-0.69 -49.24,5.64 -82.26,18.81 -12.83,5.12 -19.67,7.63 -20.54,7.63 -9.97,-10.14 -15,-20.37 -15,-30.77 0,-3.21 0.52,-6.41 1.56,-9.62 4.08,-13.61 12.66,-23.66 25.83,-30.25 34.59,-7.97 62.67,-11.96 84.34,-11.96 8.67,0 16.29,0.61 22.88,1.82 23.15,4.33 41.96,15.95 56.34,34.75 10.49,14.05 20.11,34.59 28.69,61.63 8.67,26.96 22.37,57.38 41.18,91.01 14.21,9.37 21.32,18.21 21.32,26.44 0,4.6 -2.34,9.1 -7.11,13.52 -12.91,11.79 -28.43,17.86 -46.72,18.03 -7.97,-4.94 -18.81,-13.78 -32.5,-26.7 -14.56,0 -34.41,7.2 -59.46,21.59 -25.05,14.39 -47.42,21.58 -67.01,21.58zm17.78 -57.12c12.82,0 30.07,-5.98 51.57,-18.03 15.34,-8.49 23.05,-18.29 23.05,-29.47 0,-4.42 -1.12,-9.01 -3.55,-13.95 -55.99,4.42 -84.08,23.49 -84.08,57.38 2.95,1.04 7.2,2.34 13.01,4.07zm459.9 59.2c-58.41,-9.45 -89.36,-31.46 -92.91,-65.96 -0.52,-4.59 -0.78,-9.19 -0.78,-13.69 0,-29.3 10.14,-57.21 30.51,-83.82 23.31,-30.43 53.56,-51.84 90.66,-64.14 9.8,-3.21 19.07,-4.86 27.91,-4.86 24.53,0 45.34,12.66 62.5,38.06 6.93,23.22 10.4,44.63 10.4,64.48 0,25.75 -5.81,48.63 -17.34,68.74 -20.45,35.71 -57.46,56.08 -110.95,61.19zm1.13 -57.46c26.7,0 44.99,-8.07 54.96,-24.36 7.97,-12.66 11.96,-33.37 11.96,-61.98 -7.28,-7.11 -15.6,-10.66 -24.88,-10.66 -4.24,0 -8.75,0.69 -13.52,2 -14.56,4.59 -26.95,12.3 -37.1,23.14 -11.09,11.7 -16.9,24.7 -17.59,39.09 -0.87,13.96 7.88,24.88 26.17,32.77zm246.87 55.9c-48.63,-9.79 -76.54,-24.62 -83.83,-44.38 12.49,-51.48 19.77,-111.73 21.85,-180.72 2.25,-12.4 3.64,-28.52 4.33,-48.54 0.44,-16.21 0.95,-32.59 1.39,-48.97 0.87,-18.47 1.82,-32.68 2.77,-42.65 2.6,-22.02 6.07,-34.93 10.49,-38.83 6.42,0 16.04,2.68 28.78,8.15 9.71,4.07 19.33,8.14 29.03,12.39 2.52,5.29 3.82,13.44 3.82,24.62 0,4.07 -0.09,8.49 -0.26,13.17 -2.69,26.09 -5.89,65.19 -9.62,117.28 -1.04,18.89 0.78,32.68 5.37,41.34 16.73,-1.9 34.16,-3.72 52.27,-5.28 4.85,-0.18 9.71,-0.35 14.39,-0.35 32.67,0 56.51,8.93 71.59,26.7 9.45,11.35 14.22,28.86 14.22,52.52 -10.32,41.7 -30.25,71.6 -59.72,89.72 -25.92,15.86 -61.54,23.83 -106.87,23.83zm12.91 -58.77c53.48,-5.46 80.26,-23.05 80.26,-52.95 -14.73,-14.65 -28.52,-22.28 -41.43,-22.98 -12.83,-0.52 -26.44,3.56 -40.82,12.31 -3.21,14.3 -6.42,27.56 -9.71,39.87 -0.61,2.69 -0.96,5.29 -0.96,7.63 0,8.06 4.25,13.44 12.66,16.12zm219.21 64.49c-24.36,-6.59 -38.57,-16.12 -42.65,-28.69 -2.34,-7.28 -3.55,-14.99 -3.55,-23.31 0,-6.07 0.69,-12.49 1.99,-19.08 2.95,-15.68 6.33,-32.5 10.23,-50.27 0.95,-5.54 1.47,-11 1.47,-16.46 0,-12.14 -2.85,-24.19 -8.58,-36.06 0,-15.35 5.55,-25.66 16.73,-30.95 6.42,-3.03 18.99,-5.11 37.62,-6.33 3.99,2.52 10.06,12.14 18.03,28.69 0.6,0.7 1.73,1.05 3.29,1.05 3.99,0 11.19,-2.17 21.59,-6.42 41.43,-16.73 76.27,-27.48 104.36,-32.42 5.37,-0.86 10.49,-1.3 15.25,-1.3 10.83,0 19.59,2.52 26.35,7.63 1.22,5.11 3.99,15 8.41,29.73 1.3,4.77 1.99,8.93 1.99,12.66 0,8.14 -3.2,14.21 -9.62,18.11 -50.1,5.55 -88.32,18.99 -114.5,40.39 -27.83,22.71 -47.24,57.91 -58.42,105.66 -4.42,5.64 -9.36,8.24 -14.74,7.89 -5.54,-0.34 -10.66,-0.52 -15.25,-0.52zm298.34 -6.24c-39.09,-6.93 -60.41,-19.59 -63.96,-37.88 -0.69,-3.55 -1.04,-7.19 -1.04,-10.92 0,-14.91 5.72,-30.42 17.24,-46.72 12.4,-17.59 29.56,-35.62 51.67,-54.09 22.1,-18.46 43.07,-32.24 62.84,-41.43 0,-10.66 -6.07,-16.12 -18.29,-16.47 -21.85,-0.69 -49.24,5.64 -82.26,18.81 -12.83,5.12 -19.67,7.63 -20.54,7.63 -9.97,-10.14 -15,-20.37 -15,-30.77 0,-3.21 0.53,-6.41 1.56,-9.62 4.08,-13.61 12.66,-23.66 25.83,-30.25 34.59,-7.97 62.67,-11.96 84.34,-11.96 8.67,0 16.3,0.61 22.88,1.82 23.15,4.33 41.96,15.95 56.34,34.75 10.49,14.05 20.12,34.59 28.69,61.63 8.67,26.96 22.37,57.38 41.18,91.01 14.21,9.37 21.32,18.21 21.32,26.44 0,4.6 -2.34,9.1 -7.11,13.52 -12.91,11.79 -28.43,17.86 -46.72,18.03 -7.97,-4.94 -18.81,-13.78 -32.5,-26.7 -14.56,0 -34.41,7.2 -59.46,21.59 -25.05,14.39 -47.42,21.58 -67.01,21.58zm17.78 -57.12c12.82,0 30.07,-5.98 51.57,-18.03 15.34,-8.49 23.05,-18.29 23.05,-29.47 0,-4.42 -1.12,-9.01 -3.55,-13.95 -55.99,4.42 -84.08,23.49 -84.08,57.38 2.95,1.04 7.2,2.34 13.01,4.07z"/>
  </g>
 </g>
</svg>
