<?xml version="1.0" encoding="UTF-8"?>
<!DOCTYPE svg PUBLIC "-//W3C//DTD SVG 1.1//EN" "http://www.w3.org/Graphics/SVG/1.1/DTD/svg11.dtd">
<!-- Creator: CorelDRAW 2017 -->
<svg xmlns="http://www.w3.org/2000/svg" xml:space="preserve" width="22.86mm" height="26.2466mm" version="1.1" style="shape-rendering:geometricPrecision; text-rendering:geometricPrecision; image-rendering:optimizeQuality; fill-rule:evenodd; clip-rule:evenodd"
viewBox="0 0 2286 2624.66"
 xmlns:xlink="http://www.w3.org/1999/xlink">
 <defs>
  <style type="text/css">
   <![CDATA[
    .fil0 {fill:#D2D3D5}
   ]]>
  </style>
 </defs>
 <g id="Capa_x0020_1">
  <metadata id="CorelCorpID_0Corel-Layer"/>
  <path class="fil0" d="M1202.64 1596.16c84.61,-27.14 83.82,6.64 92.5,83.71l-94.84 12.24c-11.3,-54.43 -21.78,-48.83 2.34,-95.95zm-236.06 40.1c4.71,-40.63 28.39,-62.02 73.11,-50.36 34.42,8.98 30.63,47.09 32.03,90.08 -43.13,-5.28 -80.51,-18.29 -105.14,-39.72zm-152.15 -259.25l151.96 -26.75c10.03,86.81 9.21,111.63 -76.2,118.37 -80.16,6.33 -80.82,-10.48 -75.76,-91.62zm503.69 -32.23l134.03 10.05c10.79,50.37 0.84,98.93 -62.66,96.94 -79.03,-2.48 -89.57,-33.42 -71.37,-106.99zm-322.69 8.72c57.23,-17.21 225.73,-19.83 289.43,-15.26 -2.95,53.06 -4.41,75.07 8.88,121.42 41.63,16.09 101.18,25.1 154.36,14.07 27.16,-33.08 32.37,-54.9 38.9,-111.39l122.02 25.98c-27.98,105.19 -170.01,247.94 -284.74,276.23 -3.34,-16.49 -5.21,-43.09 -8.49,-55.34 -26.8,-100.22 -186.22,-79.2 -145.73,80.77 -108.25,-2.95 -45.17,-27.73 -99.68,-131.02 -70.36,-9.47 -93.7,-8.99 -123.63,34.74l-22.25 33.23c-94.37,-59.65 -204.55,-107.01 -226.48,-226.03l82.93 -20.9c6.54,110.67 12.3,132.16 131.75,115.92 81.18,-11.05 95.29,-60.32 82.73,-142.42zm-247.89 -203.05c50.59,-104.76 186.58,-181.47 278.44,-20.21 -77.97,-65.31 -217.24,-41.96 -278.44,20.21zm508.51 -81.98c22.98,-41.52 94.47,-86.76 172.42,-52.63 102.73,44.96 97.82,82.35 119.15,108.74 -0.92,-2.08 -135.44,-149.04 -291.57,-56.11zm-235.27 -333.28c-88.38,-34.24 -175.02,-130.75 -202.08,-101 -26.38,45.04 -18.33,150.67 -22.53,210.47 -22.27,8.02 -187.73,-47.61 -246.04,-51.65 10.34,98.2 48.37,157.33 69.88,244.16 -48.93,32.38 -172.82,38.78 -211.13,49.17 -3.35,0.91 -5.95,1.69 -9.2,2.74l-18.59 7.75c-2.59,1.05 -6.4,2.73 -9.37,4.52 23.38,80.31 120.51,105.37 171.02,185.33 -47.49,40.97 -181.44,127.05 -201.51,178.41 29.04,24.32 69.99,24.72 110.7,34.34 41.02,9.68 80.34,21.19 121.09,30.35 -21.65,79.36 -74.15,126.37 -95.35,233.68 75.3,-15.97 140.07,-26.9 220.13,-22.35l-23 241.77c82.29,-10.02 128.16,-78.1 206.9,-87.7 19.98,60.95 64.81,167.67 106.99,202.66 68.04,-13.07 111.19,-105.82 149.68,-158.32 28.65,30.46 43.92,49.37 79.73,77.09 82.87,64.14 44.7,57.06 95.54,67.78l71.34 -201.38c78.1,17.35 170.87,102.1 234.13,97.92 -20.74,-73.43 -33.36,-149.17 -23,-233 97.11,-7.01 162.49,1.52 244.6,1.59 1.6,-56.72 -79.49,-150.14 -100.9,-209.54 54.94,-48.5 152.21,-56.12 204.95,-106.98 -19.73,-37.26 -56.53,-53.79 -87.62,-77.12 -23.38,-17.53 -78.85,-58.66 -90.28,-72.66 28.84,-50.15 139.92,-108.73 158.64,-185.73 -36.76,-8.56 -67.19,-24.15 -108.54,-34.59 -41.91,-10.61 -83.76,-11.94 -125.73,-22.87 10.97,-60.38 65.87,-165.25 62.33,-221.99 -68.72,-16.54 -169.01,16.38 -240.25,27.32 -5.31,-65.33 -13.21,-180.8 -46.6,-231.83 -52.29,10.89 -118.42,89.34 -178.48,132.83 -1.69,-1.64 -4.11,-6.83 -4.69,-5.27l-92.12 -162.67c-21.64,-36.17 -18,-36.61 -52.97,-51.61 -57.1,35.06 -76.06,139.25 -117.67,208.38z"/>
 </g>
</svg>
