<?xml version="1.0" encoding="UTF-8"?>
<!DOCTYPE svg PUBLIC "-//W3C//DTD SVG 1.1//EN" "http://www.w3.org/Graphics/SVG/1.1/DTD/svg11.dtd">
<!-- Creator: CorelDRAW 2017 -->
<svg xmlns="http://www.w3.org/2000/svg" xml:space="preserve" width="22.86mm" height="26.2466mm" version="1.1" style="shape-rendering:geometricPrecision; text-rendering:geometricPrecision; image-rendering:optimizeQuality; fill-rule:evenodd; clip-rule:evenodd"
viewBox="0 0 2286 2624.66"
 xmlns:xlink="http://www.w3.org/1999/xlink">
 <defs>
  <style type="text/css">
   <![CDATA[
    .fil0 {fill:#D2D3D5}
   ]]>
  </style>
 </defs>
 <g id="Capa_x0020_1">
  <metadata id="CorelCorpID_0Corel-Layer"/>
  <path class="fil0" d="M1173.52 1370.41c-2.44,-93.38 32.74,-78.09 -65.25,-116.16 19.6,36.19 34.1,81.1 65.25,116.16z"/>
  <path class="fil0" d="M1111.64 1309.04c7.78,19.55 -3.75,5.96 15.31,22.17 13.86,11.77 8.24,3.9 20.12,10.06 17.06,-40.3 14.13,-14.1 27.29,-57.88 -56.98,15.41 -7.38,18 -62.72,25.65z"/>
  <path class="fil0" d="M876.39 1289.06c121.78,67.57 208.64,151.15 417.68,117.07 54.48,-8.88 92.92,-37.82 136.43,-43.12 59.69,100.46 12.72,230.08 -45.47,290.54 -128.39,133.42 -428.43,117.21 -527.68,-60.95 -41.95,-75.27 -50.98,-153.92 -21.39,-237.02l40.43 -66.52zm76.66 -133.64c-24.22,-132.05 62.5,-241.72 174.83,-262.54 135.48,-25.1 246.8,70.73 262.5,178.6 44.24,304.14 -385.67,365.81 -437.33,83.94zm656.03 679.62c97.99,38.07 62.81,22.78 65.25,116.16 55.34,-7.65 5.74,-10.24 62.72,-25.65 -13.16,43.78 -10.23,17.58 -27.29,57.88 62.15,9.62 121.88,19.79 155.85,-22.99 -22.66,-64.83 -123.9,-30.32 -212.47,-159.93 -65.53,-95.9 -12.34,-128.47 16.96,-196.28 17.32,-40.07 11.12,-47.76 53.14,-53.74 27.84,28.26 22.95,28.75 20.7,76.97 -48.77,20.19 -99.15,18.09 -68.54,98.62 96.6,24.01 135.48,-62.72 111.62,-154.47 -11.01,-42.33 -31.87,-63.65 -49.03,-96.37 -40.43,-77.13 28.86,-162.3 -69.68,-369.26 -71.75,-150.69 80.71,-122.06 43.52,-201.48 -50.96,-17.91 -99.85,67.17 -176.77,21.21 -40.38,-44 33.69,-88.96 31.11,-135.23 -1.17,-20.56 -1.93,-16.06 -7.47,-26.28 -73.89,-21.02 -83.47,94.24 -191.71,55.97 -26.11,-85.56 36.03,-97.6 -0.2,-156.08 -82.88,-0.24 -56.99,120.86 -183.51,110.16 -69.1,-64.17 -6.05,-143.92 -100.31,-142.52 -23.83,88.23 -3.52,82.52 -57.02,156.83 -128.69,21.23 -96.42,-133.51 -170.84,-94.81l-3.17 13.52c-0.12,50.76 35.35,62.97 9.98,142.07 -86.26,27.4 -193.21,-116.12 -195.25,-63.91 -0.12,3.14 -2.21,5.22 -2.27,6.42l-0.58 12.99c9.99,48.57 117.73,71.5 24.64,193.93 -105.65,138.92 -126.09,239.55 -124.5,408.25 0.67,71.37 -23.84,78.55 -48.27,130.1 -80.84,170.46 106.82,259.73 108.37,151.09 0.31,-21.88 -2.72,-21.58 -16.11,-33.53 -26.43,-23.54 -35.69,-7.43 -67.56,-39.24 1.07,-41.85 -0.22,-45.58 32.82,-67.38 37.35,16.26 54.9,78.42 76.91,115.92 52.69,89.79 -44.41,186.3 -114.54,227.43 -49.28,28.9 -96.94,21.99 -115.19,69.03 29.11,38.35 110.51,39.67 162.05,20 80.09,-30.57 75.32,-247.06 224.56,-149.34 46.47,30.43 86.65,54.55 144.59,75.04 109.17,38.63 251.71,44.01 367.68,5.52 60.07,-19.94 104.51,-39.75 148.86,-70.46 104.23,-72.16 84.36,-21.36 140.95,-6.16z"/>
  <path class="fil0" d="M1121.9 1256.08c-75.51,28.55 -31.57,144.07 47.21,111.98 62.84,-25.6 33.77,-142.6 -47.21,-111.98z"/>
 </g>
</svg>
