<?xml version="1.0" encoding="UTF-8"?>
<!DOCTYPE svg PUBLIC "-//W3C//DTD SVG 1.1//EN" "http://www.w3.org/Graphics/SVG/1.1/DTD/svg11.dtd">
<!-- Creator: CorelDRAW 2017 -->
<svg xmlns="http://www.w3.org/2000/svg" xml:space="preserve" width="22.86mm" height="26.2466mm" version="1.1" style="shape-rendering:geometricPrecision; text-rendering:geometricPrecision; image-rendering:optimizeQuality; fill-rule:evenodd; clip-rule:evenodd"
viewBox="0 0 2286 2624.66"
 xmlns:xlink="http://www.w3.org/1999/xlink">
 <defs>
  <style type="text/css">
   <![CDATA[
    .fil0 {fill:#D2D3D5}
   ]]>
  </style>
 </defs>
 <g id="Capa_x0020_1">
  <metadata id="CorelCorpID_0Corel-Layer"/>
  <path class="fil0" d="M912.22 1855.13c-24.1,18.15 4.25,55.34 -155.51,-3.89 1.62,-14.49 9.37,-62.54 9.16,-71.68l-79.2 -85.55 -63.98 129.58c-32.26,-2.57 -36.91,1.16 -71.04,-11.13 -54.92,-19.77 -30.72,-4.84 -55.13,-37.19 -18.59,-21.55 -11.65,16.36 -15.07,-36.75 -4.76,-74.59 -5.37,-18.48 14.42,-55.91 -12.71,-26.56 -7.13,-3.81 -19,-54.92 -1.22,-5.33 -1.95,-40.66 -2.05,-47.87l-119.24 -14.49 -16.45 131.33c-6.97,-34.36 -56.56,-101.28 -56.97,-177.87 -0.37,-65.45 29.48,-180.91 48.17,-245.75l28.62 -153.14 19.3 -65.38c27.37,-90.32 2.81,-58.81 52.2,-91.03 22.84,-76.74 5.12,-45.91 65.1,-96.53 3.1,1.56 5.15,7.18 6.14,8.43 130.32,162.24 150.39,15.53 170.9,-18.66 2.71,-4.49 7.41,-7.53 10.8,-17.59 3.48,-10.21 6.36,-12.69 11.21,-17.71 78.19,57.48 -29.87,64.98 132.52,147.2l61.47 -108.68 113.21 29.6 -19.07 134.31 169.19 35.42 40.46 -133.18c325.59,67.81 219.08,36.12 240.15,178.4l93.98 12.34c5.15,-5.06 12.77,-21.49 15.37,-26.28l14.67 -27.89c20.52,-38.54 -18.83,-3.9 29.19,-54.33l138.11 66.11 -13.91 72.78c31.42,2.71 76.39,5.41 105.85,7.97 52.49,4.59 11.54,-17.4 80.14,13.38 19.84,73.34 9.42,30.19 4.27,80.52 40.16,33.77 22.98,21.74 11.36,106.52l-19.85 110.07 -12.12 49.96 -18 103.24c-34.31,156.12 -50.15,336.97 -194.37,362.73l-42.22 -114.28c-167.13,20.32 -65.54,9.4 -105.53,153.43l-107.34 -28.86c2.5,-58.69 35.18,-152.56 10.62,-215.75 -147.4,-19.74 -67.13,-68.82 -144.76,189.37l-161.31 -60.97 41.97 -108.16 13.84 -85.47 -22.9 -5.81c-101.42,-32.45 -47.36,-8.89 -60.68,-40.84l-73.87 -2.58 -102.82 193.43zm824.65 -1141.21c5.25,27.24 14.13,43.99 -18.17,92.02 -87.14,129.57 -407.74,142.12 -389.9,-179.17 149.67,35.11 68.02,35.53 150.18,146.18 224.08,49.22 77.71,-91.1 257.89,-59.03zm-523.25 -112.12c-47.67,125.02 -122.74,200.42 -264.03,167.51 -128.92,-30.01 -178.77,-127.22 -165.21,-255.28 226.7,37.21 -23.59,113.12 232.93,160.38 125.95,-66.45 40.78,-100.38 196.31,-72.61zm-995.89 177.29l-45.45 209.56 -73.44 353.19 -43.65 206.33c-44.43,276.16 111.56,401.82 385.7,457.61 -2.51,79.97 -21.65,151.02 -39.94,229.51 -49,210.32 -18.6,159.59 21.49,181.44 83.74,-73.38 84.19,-267.44 118.21,-388.79l822.6 179.34c-16.57,117.91 -95.28,301.05 -49.94,397.62 54.29,-2.09 51.74,70.94 94.77,-155.72 15.16,-79.95 26.76,-152.63 56.7,-227.88 337.04,86.92 491.59,-29.91 559.87,-361.95l84.86 -409.44 13.49 -57.24 18.21 -74.48c90.91,-485.55 258.49,-769.44 -289.58,-907.17l-57.61 -222.68 -138.76 184.31 -634.21 -138.68 -60.74 -223.81 -135.39 183.59c-493.75,-84.88 -500.81,144.54 -607.19,585.34z"/>
 </g>
</svg>
